<?xml version="1.0" encoding="utf-8"?>
<!-- Generator: Adobe Illustrator 21.0.1, SVG Export Plug-In . SVG Version: 6.00 Build 0)  -->
<svg version="1.1" id="Layer_1" xmlns="http://www.w3.org/2000/svg" xmlns:xlink="http://www.w3.org/1999/xlink" x="0px" y="0px"
	 viewBox="0 0 1366 768" style="enable-background:new 0 0 1366 768;" xml:space="preserve">
<style type="text/css">
	.st0{fill:none;stroke:#FFFFFF;stroke-width:3;stroke-miterlimit:10;}
	.st1{fill:#FFFFFF;}
</style>
<path class="st0" d="M656.5,256.5c-1.1,2.6-3.2,2-6,6c-2.1,3-2.8,5.9-3,7c-1,4.7,0.5,6.4,0,11c-0.3,2.6-1,4.6-3,9
	c-3.1,6.6-4.6,9.9-9,17c-2.5,4-6,12.3-13,29c-8.5,20.1-7,18.3-10,24c-5.4,9.9-7.3,10.2-16,25c-1,1.7-3.3,5.5-7,10
	c-2.2,2.6-4.4,5.3-8,8c-3.8,2.9-7.2,4.3-14,7c-5.2,2.1-8.1,2.8-11,3c-3,0.3-4.1,0.3-5,0c-3.7-1.1-3.5-3.9-7-6c-3.6-2.1-5.5-0.1-11-2
	c-2.3-0.8-3.9-1.9-7-4c-5.7-3.9-5.8-5.2-12-10c0,0-0.6-0.5-10-7c-0.6-0.4-2.5-1.7-4-1c-1.4,0.6-1.8,2.7-2,4c-1.3,8.3-2,12.5-2,13
	c-0.3,4.7-1.4,9.3-1,14c0.1,1,0.3,3.2-1,5c-0.6,0.9-1.1,0.8-2,2c-1.1,1.3-1.5,2.6-2,4c-0.2,0.6-0.7,2-1,4c-0.6,3.7-0.2,6.6,0,8
	c0.4,2.4,1.5,3.3,1,4c-0.5,0.6-1.5,0.2-4,0c-3-0.3-2.8,0.2-6,0c-2.9-0.2-5.1-0.7-6-1c-1.4-0.4-1.9-1.1-3-1c-1.4,0.1-2,1.2-3,2
	c-2.3,1.7-5,0.5-10,0c0,0-3,0-9,0c-13,0-12.9,0-13,0c-6.7-0.2-11.5-1-18-2c-4.4-0.7-10.3-1.8-19-4c-10.9-2.7-19.5-4.9-30-9
	c-12.3-4.8-21.2-9.9-37-19c-5.5-3.2-8.5-5.1-10-6c-2-1.3-9.7-6.2-22-16c-12.8-10.2-19.3-15.3-23-20c-4.7-5.9-19.7-17.9-24-22
	c-0.3-0.3-2.1-2.1-5-3c-0.7-0.2-3.9-1.3-5,0c-0.6,0.7-0.3,1.7,0,3c1.3,5.2,1.9,7.8,2,8c3,6.9,8.7,16.4,10,19c1.8,3.8,4.2,6.2,5,7
	c7.6,7.9,21.6,27.2,28,34c2.5,2.6,4,4.6,5,6c4.6,6.1,9.4,10.7,19,20c12.9,12.5,19.4,18.8,28,25c9.4,6.8,13.8,8.4,26,18
	c1.5,1.2,4.7,3.8,11,9c13.1,10.8,19.7,16.2,23,19c12,10.1,13.1,11.3,17,13c7.5,3.3,8.6,1,17,5c8,3.8,10.7,7.5,16,7
	c1.3-0.1,4.5-0.7,6,1c0.9,1,0.7,2.1,2,3c1.2,0.9,2.1,0.4,3,1c1.9,1.3,1.3,5.2,1,7c-0.7,4.8-2.3,6-3,9c-0.7,3.3,0.5,6.3,3,12
	c5.4,12.3,8.1,18.5,9,20c0,0,5,8,14,15c1.5,1.2,3.1,2.3,5,2c2.9-0.5,2.9-3.9,8-9c3.5-3.5,4.2-2.6,6.4-4.7c0.1-0.1,0.3-0.3,0.6-0.3
	c1.2,0,1.3,3.7,3,6c1.8,2.5,5.1,2.6,8,3c12.5,1.8,13.3,8.1,21,7c5-0.7,4.5-3.4,13-6c1-0.3,2.6-0.7,11-2c8.3-1.2,12.4-1.9,15-2
	c8-0.4,14.5,0.4,19,1c8.1,1.1,8.3,1.9,13,2c4.9,0.1,8.2-0.8,16-3c14.1-4,21.1-5.9,24-7c11.8-4.3,17.7-6.5,22-10
	c3.1-2.5,2.6-2.9,18-26c7.1-10.7,9.2-13.6,11-16c3.5-4.7,5.1-6.5,9-12c5.5-7.7,5-7.8,7-10c5.8-6.3,9.9-5.1,17-10
	c4.9-3.4,3.8-4.6,15-19c6.5-8.3,9.8-12.6,15-17c6-5.1,11.9-10.1,20-10c5.1,0,9.1,2.1,11,3c8.2,4.1,7.7,8.8,14,11
	c7.1,2.5,9.9-2.8,16,0c4.5,2.1,4.2,5.6,11,13c3.5,3.9,6.3,5.8,9,8c4.8,3.9,14.8,12.8,24,25c4.1,5.4,6.5,8.7,9,14
	c3.4,7.5,4.1,13,6,24c2,11.3,4.1,21.2,5,25c1.8,7.5,7.3,30.9,25,49c10.1,10.3,18.4,13,24,26c3.1,7.2,3.9,14.4,4,15
	c1.5,13.5-3.1,21.1,2,32c0.9,2,1.6,3.4,3,5c6.7,7.6,16.2,3.3,37,5c35.3,2.9,36,3,36,3c2.4,0.3,5.5,0.8,8-1c5.1-3.7,1.9-12.7,1-29
	c-1.5-27.5,6.1-32.5,1-45c-0.9-2.2-3.5-7.9-1-12c1.4-2.3,3.3-2.2,6-5c4.1-4.4,2.8-8.2,5-10c5-4,20.5,8.7,34,17c9.8,6,20.6,9.7,42,17
	c39.9,13.6,59.8,20.4,71,15c26.6-12.9,23.1-79.1,15-211c-1.6-26.5-1.9-24.5-3-45c0,0-2.3-45.2-1-161c-3.7-2.9-9-7.3-15-13
	c-13.5-12.9-21.8-24.1-27-31c-17.7-23.7-37.9-50.5-60-72c-3.9-3.8-11.1-10.6-21-18c-7.2-5.4-14.5-10.9-25-16
	c-7.1-3.5-19.4-9.4-36-11c-4.2-0.4-14-1.1-34,3c-23.8,4.9-41.4,12.2-48,15c-50.1,21.3-75.2,31.9-100,46c-17.6,10-31.2,18.9-64,38
	c-8,4.7-32,18.7-24,14c-0.6,0.8-1.6,2-3,2c-6.2,0.2-10.6-23.5-15-23c-1.9,0.2-1.3,4.6-4,6c-6.1,3.1-24.9-10.9-25-25
	c0-4,1.5-8.1-1-13c-0.7-1.4-2.7-5.4-6-6c-5.8-1.1-12.1,8.3-18,17c-6,8.8-4.2,9-9,15c-2,2.5-5.5,6.5-8,13c-0.5,1.4-0.2,2.6-1,3
	c-1.3,0.6-3.6-1.3-13-12c-9.2-10.4-10.2-12.2-11-14c-2.3-5.1-2.5-8.9-4-9c-1.9-0.1-4,5.5-5,10c-2.2,10.5,1.2,19.5,5,29
	c4.2,10.7,6.7,16.9,13,23c7,6.8,12.9,7.8,15,15c1.3,4.4-0.6,5.2,1,12C655.2,250.7,658,253.1,656.5,256.5z"/>
<g>
	<path class="st1" d="M474.5,454.5c-0.5,6.4-1,12.6-1.3,19c-0.1,1.6-0.1,3.2-0.7,5c-0.3,0.9-0.8,1.7-1.4,2.4c-0.6,0.7-1.2,1.4-2,1.9
		c-1.5,1.1-3.1,1.7-4.5,2.3c-1.4,0.6-2.5,1.2-3.2,2.2c-0.4,0.5-0.7,1.1-0.9,1.6c-0.1,0.4-0.1,1.2-0.2,2c-0.1,1.6-0.2,3.3-0.5,4.9
		c-0.5,3.2-1.3,6.4-2.1,9.4c-1.6,6.1-3.3,12.2-5.3,18.3c0.8-6.3,1.8-12.6,3-18.8c0.6-3.1,1.3-6.2,1.6-9.2c0.2-1.5,0.3-3.1,0.3-4.6
		c0-0.8,0-1.6,0.3-2.7c0.3-1.1,0.8-1.8,1.3-2.6c0.6-0.8,1.3-1.4,2.1-1.9c0.8-0.5,1.6-0.9,2.4-1.2c1.5-0.6,2.9-1.1,4-1.9
		c0.6-0.4,1.1-0.8,1.5-1.3c0.5-0.5,0.8-1.1,1.1-1.6c0.5-1.1,0.6-2.8,0.8-4.3C471.6,466.9,472.8,460.6,474.5,454.5z"/>
</g>
<g>
	<path class="st1" d="M485.5,491.5c0.5,4.2-0.2,8.7-2,12.7c-0.9,2.1-2.3,3.8-3.6,5.5c-1.3,1.7-2.7,3.3-4,4.9
		c-1.4,1.6-2.8,3.2-4.3,4.7c-0.7,0.7-1.5,1.5-2.1,2.2c-0.7,0.7-1.2,1.5-1.7,2.3c-2,3.4-2.9,7.5-3.2,11.7c-1-4.1-0.8-8.7,1.1-12.8
		c0.4-1,1.1-2.1,1.8-2.9c0.7-0.9,1.4-1.7,2.1-2.5c1.4-1.6,2.8-3.1,4.1-4.7c1.4-1.5,2.7-3.2,4.1-4.7c1.4-1.6,2.7-3.1,3.7-4.8
		C483.5,499.6,484.8,495.7,485.5,491.5z"/>
</g>
<g>
	<path class="st1" d="M560.5,534.5c1.1,0,2.1,0.3,3,0.5c0.9,0.3,1.7,0.6,2.5,1c0.8,0.4,1.6,0.9,2.3,1.4c0.8,0.6,1.5,1.2,2.2,2
		c-1.1,0.3-2.1,0.3-3.1,0.1c-1-0.2-1.9-0.5-2.8-0.9c-0.9-0.4-1.7-1-2.4-1.7C561.5,536.3,560.9,535.5,560.5,534.5z"/>
</g>
<g>
	<path class="st1" d="M564.5,539.5l0.3,3.6l0.1,0.9c0,0.3,0,0.7,0,1c-0.1,0.6-0.2,1.3-0.5,1.9c-0.2,0.6-0.6,1.2-1,1.7
		c-0.2,0.3-0.5,0.5-0.8,0.7c-0.4,0.2-0.7,0.3-1,0.4c-1.3,0.3-2.4,0.5-3.6,0.8c-1.2,0.2-2.4,0.4-3.6,0.7c-1.1,0.2-2.1,0.6-3,1.2
		l-3.1,1.8c-1,0.6-2,1.3-2.9,2c-0.9,0.7-1.9,1.4-2.7,2.2c-0.9,0.8-1.6,1.5-2.3,2.5c-0.8,1-1.8,2-2.8,2.8c-1,0.8-2.1,1.6-3.3,2.2
		c-0.6,0.3-1.2,0.6-1.8,0.8c-0.6,0.2-1,0.4-1.4,0.6c-0.8,0.4-1.4,1.3-2.2,2.2c-0.8,0.9-1.5,1.8-2.2,2.8c-0.3,0.5-0.7,1-1,1.5
		l-0.5,0.7l-0.2,0.4l-0.1,0.2l-0.1,0.1l0,0l-0.1,0.1c0,0.1-0.1,0.1-0.1,0.2l0.2-0.3c-0.5,0.8-1.2,2-2.6,2.4c-0.7,0.2-1.5,0.2-2.1,0
		c-0.6-0.2-1-0.5-1.4-0.7c-0.7-0.4-1.2-0.5-1.8-0.2c-0.6,0.3-1.3,0.9-2,1.5c-1.3,1.3-2.6,2.6-3.8,4c-1.2,1.4-2.4,2.9-3.5,4.3
		c0.8-1.7,1.8-3.3,2.8-4.9c1-1.6,2.1-3.1,3.3-4.6c0.6-0.7,1.3-1.5,2.3-2.1c0.5-0.3,1.2-0.5,1.8-0.5c0.6,0,1.2,0.2,1.7,0.4
		c0.5,0.2,0.9,0.4,1.2,0.5c0.3,0.1,0.4,0,0.6,0c0.4-0.2,0.8-0.7,1.2-1.5l0.2-0.3c0,0-0.1,0.1-0.1,0.1c0,0.1-0.1,0.1-0.1,0.1l0-0.1
		l0.1-0.1l0.1-0.2l0.2-0.4l0.5-0.8c0.3-0.5,0.7-1.1,1-1.6c0.7-1,1.4-2,2.2-3c0.4-0.5,0.7-1,1.2-1.5c0.5-0.5,1-1,1.7-1.4
		c0.6-0.4,1.3-0.7,1.9-0.9c0.6-0.2,1-0.4,1.5-0.7c1-0.5,1.8-1.1,2.7-1.9c0.9-0.7,1.6-1.4,2.4-2.3c0.8-0.9,1.7-2,2.7-2.8
		c1-0.8,2-1.6,3-2.3c1-0.7,2.1-1.3,3.2-2c1.1-0.6,2.1-1.2,3.3-1.7c1.2-0.6,2.5-1,3.8-1.1c1.2-0.1,2.4-0.3,3.6-0.4
		c1.2-0.1,2.4-0.2,3.5-0.4c0.6-0.1,0.8-0.2,1.3-0.6c0.4-0.3,0.7-0.8,1-1.3c0.3-0.5,0.5-1,0.6-1.6c0.1-0.3,0.1-0.5,0.1-0.8l0.1-0.9
		C564.3,541.9,564.4,540.7,564.5,539.5z"/>
</g>
<path class="st0" color="#1919e3" d="M555.5,477.5c0-0.1,2,0.1,4-1c1.7-0.9,2.7-2.5,3-3c0.2-0.4,0.7-1,1-2c0.6-1.7,0.3-2.5,1-3c0.5-0.3,0.9-0.1,2,0
	c0.1,0,1.4,0,4,0c4.7,0,4.4-0.2,5,0c1.6,0.5,1.4,1,4,2c1.1,0.4,2,0.7,2,1c0,0.4-1,0.3-2,1c-1.2,0.8-1.2,1.7-2,3
	c-0.1,0.1-1.7,2.5-4,3c-1.9,0.4-2.3-0.8-6-1c-0.1,0,0,0-3,0c-3.8,0-3.4,0-4,0C557.5,477.5,555.5,477.6,555.5,477.5z">
	
	<animate attributeName="fill" to="#4141ff" repeatDur="2000"  dur="5s"
					 values="white; blue; blue; blue" keyTimes="0; 0.07; 0.26; 1" />	
	
	
	
	</path>
<path class="st0" d="M582.5,439.5c-2.3,0.3-5.4,0.9-9,2c-4.4,1.4-7.6,2.3-11,5c-3.1,2.4-4.8,5-6,7c-2.2,3.5-3.4,6.7-4,9"/>
<g>
	<path class="st1" d="M555.5,449.5c-1.3,2.2-3,4.2-4.8,6.1c-0.9,0.9-1.8,1.8-2.8,2.7c-1,0.9-2.1,1.6-3.2,2.3c-4.3,2.8-8.6,5.3-13,8
		c-1.1,0.6-2.2,1.3-3.4,1.9c-1.2,0.6-2.5,1.2-3.8,1.6c-2.6,0.8-5.2,1.2-7.7,1.4c-5.1,0.5-10.3,0.7-15.3,0.1c5.1-0.7,10-1.5,15-2.5
		c2.5-0.5,4.9-0.9,7.2-1.8c1.2-0.4,2.2-0.8,3.2-1.4c1.1-0.6,2.1-1.3,3.2-1.9c2.2-1.3,4.4-2.6,6.6-3.8c2.2-1.2,4.5-2.4,6.7-3.6
		c1.1-0.6,2.2-1.2,3.2-1.9c1-0.7,2-1.4,3-2.2C551.8,452.9,553.6,451.3,555.5,449.5z"/>
</g>
<g>
	<path class="st1" d="M544.5,470.5c-2.3,2.3-5.1,4.1-8,5.5c-1.4,0.7-3,1.3-4.5,1.8c-1.5,0.5-3.1,0.9-4.6,1.3
		c-1.5,0.4-3.1,0.8-4.7,1.1c-1.6,0.3-3.2,0.6-4.9,0.5c-3.5,0-6.7-1.3-9.3-3.2c3.1,0.8,6.2,1.3,9.1,0.9c2.9-0.5,5.9-1.4,9-2.2
		l4.6-1.1c1.5-0.4,3-0.8,4.4-1.3C538.6,472.9,541.5,471.7,544.5,470.5z"/>
</g>
<g>
	<path class="st1" d="M583.5,471.5c2.2,0.7,4.3,1.3,6.5,1.7c2.2,0.5,4.4,0.8,6.5,1c4.4,0.3,8.7,0.1,12.8-1.3
		c2.1-0.7,4.1-1.4,5.8-2.5c0.9-0.5,1.7-1.2,2.4-1.9c0.4-0.4,0.6-0.7,0.9-1.1c0.3-0.4,0.6-0.9,0.9-1.4c2.3-3.9,4.5-7.8,7.1-11.6
		c-1.5,4.3-3.2,8.5-5.1,12.7c-0.2,0.5-0.5,1-0.8,1.6c-0.3,0.5-0.7,1.1-1.1,1.6c-0.8,0.9-1.7,1.8-2.7,2.5c-2,1.5-4.3,2.3-6.5,3
		c-2.2,0.7-4.6,1.2-7,1.2c-2.4,0.1-4.7-0.1-7-0.5c-2.3-0.4-4.5-1.1-6.7-1.9C587.5,473.8,585.4,472.8,583.5,471.5z"/>
</g>
<g>
	<path class="st1" d="M542.5,479.5c1.8,2.6,3.7,5.2,5.9,7.5c1,1.2,2.1,2.3,3.3,3.4c1.1,1.1,2.2,2.2,3.4,3.2c2.4,2,4.9,3.7,7.8,5
		c1.4,0.7,2.8,1.4,4.2,1.8c1.4,0.4,2.8,0.7,4.2,0.6c1.4,0,2.8-0.3,4.2-0.8c1.4-0.5,2.7-1.2,4.1-2c1.4-0.8,2.8-1.6,4.1-2.4
		c1.3-0.8,2.6-1.7,3.9-2.6c5-3.7,9.7-8,14-12.8c-3.3,5.5-7.6,10.4-12.6,14.6c-1.2,1.1-2.5,2-3.9,3c-1.4,0.9-2.7,1.8-4.1,2.6
		c-1.4,0.8-2.9,1.7-4.5,2.3c-1.6,0.6-3.4,1-5.2,1c-1.8,0-3.5-0.3-5.2-0.8c-1.6-0.6-3.1-1.3-4.6-2c-2.9-1.5-5.7-3.4-8-5.8
		c-2.4-2.3-4.4-4.8-6.3-7.4C545.4,485.3,543.8,482.5,542.5,479.5z"/>
</g>
<g>
	<path class="st1" d="M513.5,483.5c3.4,2.7,6.9,5,10.8,6.7c1.9,0.9,3.9,1.6,5.9,2.2c2,0.6,4.1,0.8,6.3,1.5c4.3,1.4,8.1,3.7,11.6,6.4
		c1.7,1.4,3.4,2.8,4.9,4.5c0.8,0.8,1.5,1.7,2.2,2.6c0.7,0.9,1.3,1.8,1.9,2.6c0.6,0.8,1.2,1.4,1.9,1.9c0.8,0.6,1.6,1.1,2.5,1.4
		c1.8,0.8,3.7,1.2,5.8,1.4c4.2,0.5,8.5,1.3,12.4,0.7c3.9-0.6,7.6-2.8,10.5-5.8c1.5-1.5,2.8-3.2,4.1-4.8c1.3-1.7,2.4-3.5,3.4-5.4
		c-0.7,2-1.6,4-2.7,5.9c-1.1,1.9-2.3,3.6-3.7,5.3c-2.7,3.4-6.6,6.2-11.2,7.1c-2.2,0.5-4.5,0.5-6.7,0.4c-2.2-0.1-4.3-0.3-6.5-0.5
		c-4.3-0.4-9.2-1.8-12.3-5.9c-0.7-0.9-1.2-1.8-1.8-2.6c-0.6-0.8-1.3-1.6-2-2.4c-1.4-1.5-2.9-2.9-4.5-4.3c-3.2-2.6-6.8-4.9-10.5-6.4
		c-1.9-0.7-4-1.1-6.1-1.9c-2.1-0.7-4.1-1.7-6-2.7C519.8,489.4,516.4,486.6,513.5,483.5z"/>
</g>
<g>
	<path class="st1" d="M589.5,418.5c-3.5,3.5-7.5,6.5-12,8.8c-4.4,2.3-8.9,4.2-13.4,6.1l-6.8,2.8c-1.1,0.4-2.3,0.9-3.4,1.4
		c-0.5,0.2-1,0.5-1.5,0.8c-0.5,0.3-1,0.6-1.5,1c-2,1.4-4.1,2.8-6.4,3.9c-2.3,1.1-4.7,1.9-7.1,2.3c2.2-1.1,4.4-2.2,6.4-3.6
		c2-1.3,3.8-2.9,5.7-4.5c0.5-0.4,1-0.8,1.5-1.2c0.6-0.4,1.2-0.7,1.7-1c1.1-0.6,2.3-1.1,3.4-1.6c2.2-1,4.5-2,6.8-2.9l6.8-2.8l6.8-2.7
		C581,423.4,585.3,421,589.5,418.5z"/>
</g>
<g>
	<path class="st1" d="M470.5,561.5c0-0.4,0.3-0.8,0.6-1.1c0.3-0.3,0.7-0.5,1.1-0.7c0.8-0.4,1.5-0.8,2.3-1.1c1.6-0.7,3.2-1.3,4.8-2
		c3.2-1.3,6.5-2.4,10.1-2.8c3.5-0.4,7.2-0.2,10.6,0.6c1.7,0.4,3.4,0.9,5.1,1.4c0.8,0.3,1.7,0.5,2.5,0.9c0.4,0.2,0.8,0.3,1.3,0.5
		c0.2,0.1,0.4,0.2,0.7,0.3c0.3,0.2,0.5,0.3,0.9,0.7c0.1,0.1,0.1,0.2,0.2,0.2l0.1,0.1c0,0,0.1,0.1,0.1,0.2c0.1,0.2,0.1,0.5,0.1,0.7
		c0,0.2-0.1,0.5-0.2,0.8c-0.2,0.3-0.3,0.4-0.5,0.5c-0.1,0.1-0.2,0.1-0.2,0.2l-0.1,0.1c-0.1,0-0.2,0.1-0.3,0.1l-0.2,0
		c-0.4,0.1-0.7,0-0.9,0c-0.5,0-0.9-0.1-1.3-0.1c-0.8-0.1-1.7-0.1-2.5-0.1c-1.6,0-3.2,0.1-4.8,0.5c-1.5,0.4-3.1,0.9-4.3,1.9
		c-0.8,0.6-1.7,1-2.5,1.3c-0.8,0.3-1.7,0.6-2.6,0.8c-1.7,0.4-3.5,0.6-5.3,0.6c-0.9,0-1.8-0.1-2.6-0.2c-0.5-0.1-0.9-0.3-1.3-0.4
		l-1.2-0.4c-1.6-0.5-3.3-1.1-4.9-1.6l-2.5-0.8c-0.4-0.1-0.8-0.3-1.2-0.4C471.1,562.1,470.6,562,470.5,561.5z M470.5,561.5
		c0.1,0.5,0.6,0.6,1,0.8c0.4,0.2,0.8,0.3,1.2,0.4c0.8,0.2,1.7,0.5,2.5,0.7l5,1.3l1.3,0.3c0.4,0.1,0.8,0.2,1.2,0.2c0.8,0,1.7,0,2.5,0
		c1.7-0.1,3.3-0.5,4.9-1.1c0.8-0.3,1.5-0.6,2.2-1c0.7-0.4,1.4-0.8,1.9-1.3c0.3-0.3,0.7-0.6,1.1-0.9c0.4-0.3,0.8-0.5,1.2-0.7
		c0.8-0.4,1.7-0.8,2.6-1.1c1.8-0.6,3.6-0.9,5.5-0.9c0.9,0,1.8,0,2.7,0l1.2,0.1c0.2,0,0.4,0,0.3,0l0,0c0,0-0.1,0-0.1,0l-0.1,0
		c0,0-0.1,0.1-0.2,0.1c-0.1,0.1-0.2,0.2-0.4,0.4c-0.1,0.2-0.2,0.5-0.2,0.6c0,0.2,0,0.4,0.1,0.5c0,0.1,0.1,0.1,0.1,0.1l0,0.1
		c0,0,0.1,0.1,0.1,0.1c0.1,0.1,0,0-0.1-0.1c-0.1-0.1-0.3-0.2-0.5-0.2c-0.3-0.2-0.7-0.3-1.1-0.5c-0.8-0.3-1.6-0.6-2.4-0.9
		c-1.6-0.6-3.2-1.2-4.8-1.7c-3.2-1-6.5-1.6-9.9-1.6c-3.4,0-6.8,0.7-10,1.7c-1.6,0.5-3.3,1-4.9,1.7c-0.8,0.3-1.6,0.7-2.4,1.1
		c-0.4,0.2-0.7,0.4-1.1,0.7C470.8,560.7,470.5,561.1,470.5,561.5z"/>
</g>
<g>
	<path class="st1" d="M552.5,524.5c-2.2,3.3-4.6,6.4-7.1,9.5c-2.5,3-5.1,6-7.6,9c-2.5,3-5.1,5.9-7.4,9c-2.3,3.1-4.5,6.3-6.8,9.6
		c1.1-3.8,2.8-7.5,4.9-10.9c2.1-3.5,4.5-6.6,7.1-9.6c1.3-1.5,2.6-3,4-4.4c1.4-1.4,2.8-2.8,4.2-4.2
		C546.5,529.6,549.4,527,552.5,524.5z"/>
</g>
<g>
	<path class="st1" d="M645.5,449.5c-1.3-3.3-1.9-7-1.4-10.7c0.3-1.8,0.8-3.6,1.7-5.3c0.4-0.8,0.9-1.6,1.3-2.3
		c0.4-0.7,0.7-1.4,0.9-2.2c0.5-1.6,0.6-3.2,0.4-4.7c-0.2-1.6-0.7-3.2-1.2-5.1c-0.4-1.8-0.5-3.9-0.2-5.8c0.3-1.9,0.9-3.8,1.7-5.5
		c1.7-3.4,4.1-6.3,6.8-8.8c1.3-1.3,2.7-2.4,4.1-3.6c1.4-1.2,3-2.1,4.6-3c6.5-3.5,13.9-4.8,21-4c-7.1,0.4-14,2.4-19.9,6
		c-2.9,1.8-5.5,4.1-7.9,6.6c-2.4,2.4-4.6,5.1-6.1,8.1c-0.7,1.5-1.3,3-1.5,4.6c-0.3,1.6-0.2,3.2,0.1,4.8c0.3,1.6,0.8,3.4,1,5.4
		c0.1,1,0,2-0.1,2.9c-0.2,1-0.4,1.9-0.7,2.8c-0.3,0.9-0.8,1.8-1.3,2.6c-0.5,0.8-1.1,1.5-1.5,2.2c-0.9,1.4-1.6,3-2,4.6
		C644.7,442.4,644.9,446,645.5,449.5z"/>
</g>
<g>
	<path class="st1" d="M711.5,367.5c2.7,5.1,5,10.4,7,15.8c1.1,2.7,2,5.4,2.9,8.2c0.9,2.7,1.7,5.5,2.6,8.3c0.8,2.8,1.5,5.6,2.2,8.4
		c0.6,2.9,1,5.8,1,8.8c-0.1,3-0.7,6-2,8.7c-1.3,2.7-3.3,5-5.6,6.7c1.9-2.2,3.4-4.6,4.3-7.3c0.9-2.6,1.2-5.4,1-8.1
		c-0.2-2.8-0.7-5.5-1.4-8.2c-0.7-2.7-1.5-5.5-2.3-8.2c-0.8-2.8-1.6-5.5-2.4-8.3l-2.4-8.3C714.7,378.6,713,373.1,711.5,367.5z"/>
</g>
<g>
	<path class="st1" d="M712.5,408.5c5.6,6.1,10.1,13.3,13.2,21c1.6,3.9,2.8,7.9,3.7,12c0.9,4.1,1.3,8.3,1.5,12.5
		c0.2,4.1,0.2,8.3-0.1,12.5c-0.3,4.2-0.8,8.3-1.6,12.4c-1.6,8.2-4.2,16.1-7.7,23.6c2.4-7.9,4.3-15.9,5.4-24c1.1-8.1,1.5-16.2,1-24.4
		c-0.3-8.1-1.7-16.1-4.4-23.8C720.9,422.7,717.1,415.3,712.5,408.5z"/>
</g>
<g>
	<path class="st1" d="M655.5,282.5c0.3,3.9,0.7,7.8,1.2,11.7c0.6,3.9,1.3,7.7,2.3,11.5c0.9,3.8,2,7.5,3.3,11.3
		c1.2,3.7,2.4,7.4,4.1,10.9c1.6,3.4,3.8,6.5,6.8,8.8c3,2.2,6.5,3.7,10.2,4.3c3.7,0.6,7.5,0.5,11.3,0.1c3.8-0.4,7.5-1.4,11-2.9
		c3.5-1.4,6.8-3.4,9.9-5.7c3.1-2.3,5.9-4.9,8.7-7.6c5.5-5.4,10-11.8,13.2-18.8c1.6-3.5,2.8-7.2,3.7-10.9c0.9-3.8,1.4-7.6,1.6-11.5
		c0.4-7.8-0.8-15.6-3.3-23.1c1.5,3.6,2.7,7.4,3.5,11.3c0.8,3.9,1.2,7.8,1.2,11.8c0,8-1.6,16-4.7,23.3c-3.1,7.4-7.7,14.1-13.4,19.9
		c-5.5,5.6-11.9,11-19.4,14.1c-3.8,1.6-7.7,2.6-11.8,3c-3.9,0.4-8.1,0.6-12.2-0.2c-4-0.8-8-2.4-11.3-5c-1.6-1.3-3.1-2.8-4.3-4.5
		c-1.2-1.7-2.2-3.5-3-5.3c-1.6-3.7-2.8-7.5-3.8-11.3c-1.1-3.8-2.1-7.6-2.8-11.5C656.1,298.3,655.4,290.4,655.5,282.5z"/>
</g>
<g>
	<path class="st1" d="M741.5,318.5c1.7,5.8,2.8,11.8,3.5,17.9c0.3,3,0.6,6.1,0.6,9.2c0,3.1-0.1,6.1,0,9.1
		c0.4,12.1,0.1,24.3,3.3,35.7c0.4,1.4,0.9,2.8,1.3,4.3c0.5,1.5,0.9,2.9,1.3,4.4c0.8,3,1.5,5.9,2.2,8.9c1.3,5.9,2.7,12,2.9,18.1
		c0.2,3.1,0.1,6.2-0.1,9.2c-0.2,3-0.5,6-0.5,9c-0.2,6,0,12.1,0.4,18.1c-1-6-1.7-12-1.9-18.1c-0.1-3,0-6.1,0-9.1c0.1-3,0-6-0.3-9
		c-0.3-3-0.7-5.9-1.3-8.9c-0.6-2.9-1.3-5.9-2.1-8.8c-0.7-2.9-1.4-5.9-2.3-8.8c-0.4-1.4-0.8-2.9-1.3-4.3c-0.5-1.4-1-2.9-1.4-4.4
		c-1.6-6-2.4-12.2-2.6-18.3c-0.1-3.1-0.2-6.1-0.2-9.1c0-3,0-6.1,0.1-9.1c0.1-3,0.2-6.1,0.4-9.1c0.1-3,0-6-0.1-9
		C743.3,330.5,742.5,324.5,741.5,318.5z"/>
</g>
<g>
	<path class="st1" d="M816.5,272.5c-3.6,15.7-7.3,31.4-11.3,47.1c-2,7.8-4.1,15.6-6.2,23.4c-2.1,7.8-4.1,15.6-5.7,23.4
		c-1.6,7.8-2.8,15.8-3.8,23.8c-0.9,8-1.4,16-1.2,23.9c0.3,8,1.2,16,2.9,23.8c0.9,3.9,2,7.8,3.3,11.5c1.4,3.8,3,7.5,4.8,11.1
		c-4.3-6.9-7.4-14.4-9.6-22.2c-2.1-7.8-3.3-15.9-3.8-24c-0.5-8.1-0.1-16.3,0.7-24.4c0.8-8.1,2.1-16.1,3.7-24.1
		c3.4-15.9,8.2-31.3,12.6-46.8C807.3,303.4,811.8,287.9,816.5,272.5z"/>
</g>
<g>
	<path class="st1" d="M947.5,134.5c-4.5,6.2-8.3,12.8-10.8,20c-1.2,3.6-2,7.3-2.4,11c-0.2,1.9-0.2,3.8-0.2,5.6
		c0.1,1.9,0.3,3.7,0.4,5.7c0.2,1.9,0.3,3.8,0.2,5.8c-0.1,1.9-0.3,3.9-0.7,5.8c-0.7,3.8-1.9,7.5-3.6,11c-1.7,3.5-3.8,6.8-6.1,9.9
		c-2.2,3.1-4.6,6-6.2,9.4c-1.6,3.4-3.3,6.9-5,10.3c-1.8,3.4-3.6,6.7-5.5,10.1c-3.7,6.7-7.6,13.2-11.4,19.8
		c-7.7,13.1-15.3,26.4-23.9,39c-4.3,6.3-8.9,12.5-13.3,18.6c-2.2,3.1-4.4,6.2-6.3,9.4c-1.9,3.2-3.7,6.5-5.4,9.9
		c-3.4,6.7-6.4,13.7-8.6,20.9c-2.3,7.2-3.9,14.6-4.9,22c-1,7.5-1.6,15.1-1.9,22.6c-0.3,7.6-0.5,15.2-0.6,22.8l-0.2,11.4
		c-0.1,3.8-0.5,7.7-1.4,11.4c-0.9,3.7-2.2,7.4-4.1,10.7c-1.9,3.3-4.3,6.4-7,9c5.4-5.4,8.9-12.5,10.4-19.8c0.8-3.7,1-7.5,1-11.3
		l-0.1-11.4c0-7.6,0-15.2,0.2-22.9c0.2-7.6,0.6-15.3,1.5-22.9c0.5-3.8,1.1-7.6,1.8-11.4c0.8-3.8,1.8-7.5,2.9-11.2
		c2.3-7.3,5.3-14.5,8.7-21.3c1.7-3.4,3.5-6.9,5.4-10.2c2-3.3,4.1-6.5,6.4-9.6c4.5-6.2,8.9-12.3,13.2-18.6
		c8.6-12.5,16.3-25.6,24.1-38.7c3.9-6.6,7.7-13.1,11.5-19.7c3.7-6.6,7.4-13.2,10.7-20.1c0.9-1.8,2-3.5,3.1-5
		c1.1-1.6,2.3-3.1,3.4-4.6c2.3-3,4.4-6.1,6.1-9.5c1.7-3.3,2.9-6.9,3.7-10.5c0.4-1.8,0.6-3.7,0.7-5.5c0.1-1.9,0-3.7-0.1-5.6
		c-0.1-1.9-0.3-3.8-0.3-5.7c0-1.9,0.1-3.9,0.3-5.8c0.5-3.8,1.4-7.6,2.8-11.2C938.7,147,942.8,140.5,947.5,134.5z"/>
</g>
<g>
	<path class="st1" d="M874.5,221.5c-0.7,10.6-2.9,21.1-6.2,31.2c-1.6,5.1-3.7,10.1-6,14.8c-2.3,4.8-4.5,9.5-6.4,14.4
		c-2,4.9-3.8,9.8-5.5,14.8c-1.7,5-3.3,10-4.9,15c-3,10.1-5.6,20.3-8,30.7c1.1-10.5,3.1-21,5.7-31.3c2.6-10.3,5.9-20.4,9.9-30.3
		c2-4.9,4.3-9.8,6.6-14.5c2.4-4.7,4.5-9.4,6.4-14.4C869.8,242.1,872.5,231.9,874.5,221.5z"/>
</g>
<g>
	<path class="st1" d="M855.5,230.5c-1.9,9.1-4.3,18-7,26.9c-1.3,4.4-2.8,8.8-4.3,13.2c-1.5,4.4-3.2,8.7-4.8,13
		c-3.3,8.6-6.4,17.2-9,26.1c-2.6,8.8-4.9,17.8-6.9,26.8c0.8-9.2,2.4-18.4,4.6-27.4c1.1-4.5,2.4-9,3.8-13.4c1.4-4.4,3.1-8.8,4.7-13.1
		c3.3-8.6,6.5-17.2,9.7-25.9L855.5,230.5z"/>
</g>
<path class="st0" d="M513.5,435.5c1.8,0.2,4.3,0.1,7-1c3-1.2,4.3-3.1,7-6c2.5-2.7,6.7-7.3,11-10c2.4-1.5,6.2-3.4,12-4"/>
<g>
	<path class="st1" d="M1066.5,250.5c0.8,16.1,1.7,32.3,4.2,48.2c0.7,4,1.4,7.9,2.4,11.8c0.5,1.9,1.1,3.8,1.8,5.7l0.6,1.4
		c0.2,0.4,0.4,0.9,0.6,1.3c0.4,0.9,1,1.8,1.4,2.7c1.8,3.7,2.9,8,2.3,12.3c-0.1,1.1-0.4,2.1-0.7,3.2c-0.4,1-0.9,2.1-1.5,3
		c-0.6,0.9-1.3,1.7-1.8,2.4c-0.5,0.8-0.9,1.5-1.2,2.4c-0.6,1.7-0.7,3.6-0.3,5.4c0.4,1.8,1.1,3.6,2,5.4c1.7,3.5,3.8,7.1,5.4,10.9
		c0.8,1.9,1.5,3.8,2,5.9c0.5,2,0.8,4.2,0.9,6.2c0.2,4.1,0.1,8.1,0.2,12.2c0.1,8,0.4,16.1,1.4,24c0.5,4,1.1,8,1.6,12
		c0.5,4,0.8,8.1,1,12.1c0.4,8.1,0.6,16.2,0.3,24.3c-0.1,4.1-0.5,8.1-0.6,12.1c-0.1,2,0,3.9,0.2,5.8c0.2,1.9,0.6,3.9,1.1,5.8
		c1,3.8,2.2,7.6,3.9,11.1c1.7,3.5,4.1,6.6,6.5,10c2.4,3.4,4.3,7.2,5.6,11.1c1.3,3.9,2.2,8,2.7,12c1,8.2,0.2,16.4-1.4,24.4
		c-1.6,8-3.8,15.8-6,23.5c-2.3,7.7-4.6,15.5-7.4,23.1c-1.4,3.8-2.8,7.6-4.3,11.3c-1.5,3.7-3.1,7.4-4.8,11.1c3.1-7.5,5.9-15,8.4-22.7
		c2.5-7.7,4.6-15.4,6.7-23.2c2.1-7.8,4.2-15.6,5.6-23.5c1.4-7.9,2.1-15.9,0.9-23.8c-0.6-3.9-1.5-7.8-2.8-11.5
		c-1.3-3.7-3.1-7.2-5.4-10.4c-2.3-3.2-4.9-6.5-6.7-10.3c-1.9-3.7-3.2-7.7-4.2-11.7c-0.5-2-0.9-4-1.2-6.1c-0.3-2.1-0.3-4.2-0.3-6.2
		c0.1-4.1,0.4-8.1,0.5-12.1c0.2-8,0-16.1-0.4-24.1c-0.2-4-0.5-8-1-12c-0.4-4-1.1-8-1.5-12c-0.9-8.1-1.1-16.2-1.2-24.3
		c-0.1-4,0-8.1-0.1-12.1c-0.1-2-0.3-3.9-0.8-5.7c-0.5-1.9-1.1-3.7-1.9-5.5c-1.5-3.7-3.5-7.1-5.3-10.8c-0.9-1.9-1.7-3.9-2.1-6
		c-0.4-2.2-0.2-4.5,0.5-6.6c0.4-1,0.9-2.1,1.6-2.9c0.6-0.9,1.3-1.6,1.9-2.4c1.1-1.5,1.7-3.3,1.9-5.1c0.6-3.7-0.4-7.7-2-11.2
		c-0.4-0.9-0.9-1.7-1.3-2.7c-0.2-0.5-0.5-0.9-0.7-1.4l-0.6-1.4c-0.7-1.9-1.3-3.9-1.8-5.9c-1-4-1.7-8-2.3-12
		c-1.1-8-1.7-16.1-2.1-24.2C1066.7,266.6,1066.6,258.6,1066.5,250.5z"/>
</g>
<g>
	<path class="st1" d="M1032.5,300.5c-3.3,11.2-6.3,22.6-8.6,34c-1.1,5.7-2.3,11.5-3.3,17.2c-1,5.7-1.6,11.5-1.2,17.2
		c0.2,2.9,0.6,5.7,1.3,8.4c0.7,2.7,1.8,5.4,2.9,8.1c2.3,5.3,4.8,10.7,7.2,16c4.8,10.7,9.5,21.4,14,32.3c2.2,5.4,4.3,10.9,6.2,16.5
		c1.9,5.6,3.7,11.1,5.4,16.8c1.7,5.6,3.3,11.4,4,17.3c0.7,6,0.5,11.9-0.3,17.8c-0.8,5.9-2.2,11.7-4.1,17.3c-0.9,2.8-2,5.6-3.1,8.3
		c-1.1,2.7-2.2,5.4-3.5,8.1c-5,10.7-11.3,20.7-18.9,29.6c3.5-4.7,6.8-9.5,9.8-14.6c2.9-5,5.6-10.3,7.8-15.6c1.1-2.7,2.2-5.4,3.2-8.1
		c1-2.7,2-5.5,2.9-8.2c1.7-5.5,3-11.2,3.6-17c0.3-2.9,0.4-5.8,0.5-8.6c0-2.9-0.1-5.8-0.5-8.6c-0.7-5.7-2.3-11.3-4.1-16.8
		c-1.8-5.6-3.6-11.1-5.5-16.6c-1.9-5.5-4-10.9-6.2-16.3c-4.4-10.8-9.1-21.5-13.8-32.3c-2.3-5.4-4.7-10.7-7-16.1
		c-1.1-2.7-2.2-5.5-2.9-8.5c-0.7-3-1-6-1.1-8.9c-0.3-6,0.6-11.9,1.7-17.7c1.1-5.8,2.4-11.5,3.7-17.2
		C1025.2,322.8,1028.5,311.5,1032.5,300.5z"/>
</g>
<path class="st0" d="M893.5,510.5c23.5,5.5,42.7,12.3,57,18c16.9,6.8,30.2,13.5,39,18c12.5,6.3,22.9,12.2,31,17"/>
<path class="st0" d="M872.5,468.5c12.2-2.9,29.3-4.9,48,0c12.2,3.2,20.8,8.3,37,18c15.1,9.1,30.7,18.4,41,28
	c28.7,26.7,32,70.2,32,92"/>
<g>
	<path class="st1" d="M764.5,198.5c3.1,8.3,5.8,16.8,8.3,25.3c2.4,8.5,4.5,17.2,6.2,25.9c1.7,8.7,3.2,17.5,4,26.4
		c0.4,4.4,0.6,8.9,0.4,13.5c-0.2,4.5-0.9,9-1.9,13.4c-0.6,2.2-1.2,4.4-2.1,6.5c-0.9,2.1-2,4.1-3,6.1c-2.1,3.9-3.8,7.8-5.3,11.9
		c-3,8.2-5.3,16.8-6.9,25.4c-1.7,8.6-2.7,17.4-3.6,26.2c-0.5,4.4-0.9,8.8-1.3,13.2c-0.3,4.4-0.6,8.8-0.8,13.3
		c-0.3-8.9,0-17.7,0.6-26.6c0.5-8.8,1.3-17.7,2.8-26.5c1.4-8.8,3.7-17.5,6.6-25.9c1.5-4.2,3.3-8.4,5.4-12.3c1-2,2.1-3.9,2.9-5.8
		c0.8-2,1.4-4,1.9-6.1c1-4.2,1.7-8.5,1.9-12.8c0.2-4.3,0-8.7-0.3-13.1c-0.7-8.7-2-17.5-3.5-26.2
		C773.7,232.7,769.5,215.5,764.5,198.5z"/>
</g>
<g>
	<path class="st1" d="M979.5,122.5c-5.2,15.1-9.9,30.3-14.1,45.7c-2,7.7-4,15.4-5.8,23.2c-1.8,7.7-3.4,15.5-4.9,23.3
		c-1.5,7.8-2.8,15.7-3.9,23.5c-1.2,7.9-2.1,15.8-3,23.7c-1.7,15.8-2.8,31.7-3.4,47.7c-0.3-8-0.3-16-0.2-23.9c0.2-8,0.6-16,1.2-23.9
		c0.6-8,1.5-15.9,2.5-23.8c1.1-7.9,2.3-15.8,3.8-23.7c1.5-7.9,3.2-15.7,5-23.4c1.9-7.8,4-15.5,6.3-23.1
		C967.7,152.2,973.2,137.2,979.5,122.5z"/>
</g>
<g>
	<path class="st1" d="M992.5,107.5l-4.3,13.2c-1.4,4.4-2.8,8.8-4.1,13.2c-2.7,8.8-5.2,17.7-7.5,26.6c-2.3,8.9-4.5,17.9-6.4,26.9
		c-2,9-3.8,18.1-5.4,27.1c-3.3,18.1-6,36.4-8.2,54.7c-2.2,18.3-3.9,36.7-5.1,55.2c0-9.2,0.3-18.5,0.7-27.7c0.5-9.2,1.1-18.5,2-27.7
		c0.9-9.2,2-18.4,3.2-27.6c1.3-9.2,2.7-18.3,4.4-27.4c3.3-18.2,7.3-36.3,12.5-54.1C979.4,142.1,985.5,124.6,992.5,107.5z"/>
</g>
<g>
	<path class="st1" d="M997.5,126.5c-4.9,15.4-9.4,30.9-13.3,46.5c-1.9,7.8-3.8,15.7-5.4,23.5c-1.7,7.9-3.4,15.8-4.8,23.7
		c-1.5,7.9-2.7,15.9-3.7,23.9c-1.1,8-1.8,16-2.4,24c-0.6,8-1,16.1-1.2,24.1c-0.1,4-0.2,8.1-0.2,12.1c0,4,0,8.1,0.1,12.1
		c-1.5-16.1-1.8-32.3-1-48.5c0.8-16.2,2.6-32.3,5.5-48.3c1.5-8,3.1-15.9,4.9-23.8c1.8-7.9,3.8-15.8,6-23.5
		c2.2-7.8,4.6-15.5,7.2-23.2C991.7,141.6,994.4,134,997.5,126.5z"/>
</g>
<g>
	<path class="st1" d="M1004.5,144.5l-2.5,6.6c-0.8,2.2-1.7,4.4-2.5,6.7c-1.6,4.5-3.1,8.9-4.5,13.4l-0.1,0.2
		c-1.5,5.4-3.2,10.6-4.6,16c-1.5,5.4-2.7,10.9-3.9,16.4c-1.2,5.5-2.2,11-3.2,16.6c-0.9,5.5-1.8,11.1-2.6,16.7
		c-3.2,22.3-4.6,44.8-5.1,67.4c-0.8-11.3-0.9-22.6-0.6-33.9c0.4-11.3,1.3-22.6,2.8-33.9c1.5-11.2,3.4-22.4,5.9-33.5
		c1.3-5.5,2.7-11,4.3-16.5c0.4-1.4,0.8-2.7,1.3-4.1l1.4-4.1c0.9-2.7,1.8-5.4,2.8-8.1l-0.1,0.2c1.6-4.5,3.4-8.9,5.3-13.2
		c0.9-2.2,1.9-4.3,2.9-6.5C1002.4,148.8,1003.5,146.6,1004.5,144.5z"/>
</g>
<g>
	<path class="st1" d="M1013.5,160.5c-2.6,6-5.2,11.9-7.5,17.9c-2.3,6-4.4,12.1-6.2,18.3c-1.8,6.2-3.4,12.4-4.8,18.7
		c-1.4,6.3-2.5,12.7-3.5,19.1c-0.2-6.5,0.3-13,1.2-19.5c0.4-3.2,1.1-6.4,1.7-9.6c0.7-3.2,1.5-6.4,2.5-9.5c1-3.1,2-6.2,3.1-9.3
		c1.2-3,2.4-6.1,3.8-9C1006.6,171.6,1009.8,165.9,1013.5,160.5z"/>
</g>
<g>
	<path class="st1" d="M630.5,483.5c-3.9,3-7.5,6.5-10.1,10.6c-2.7,4.1-4.4,8.7-4.8,13.4c-0.5,4.8-0.3,9.8-0.7,14.8
		c-0.2,2.5-0.4,5-0.8,7.5c-0.3,2.5-0.7,4.9-1.2,7.4c-0.9,4.9-2.1,9.9-4.1,14.6c-2,4.7-4.7,9.1-8.1,12.9
		c-6.8,7.6-15.8,12.7-25.3,15.8c9-4.2,17.3-9.8,23.5-17.3c3.1-3.7,5.5-7.9,7.2-12.4c1.8-4.5,2.9-9.2,3.7-14.1
		c0.4-2.4,0.8-4.9,1.2-7.3c0.4-2.4,0.6-4.8,0.9-7.3c0.2-2.4,0.4-4.9,0.5-7.4c0.1-2.5,0.3-5,0.7-7.5c0.4-2.5,1.1-5,2.1-7.4
		c1-2.3,2.3-4.5,3.9-6.6C622.3,489.3,626.2,486,630.5,483.5z"/>
</g>
<path class="st0" d="M581.5,556.5c-4.5,2.9-11.3,8.3-17,17c-3.6,5.6-5.8,10.9-7,15"/>
<g>
	<path class="st1" d="M609.5,411.5c3.3-7.6,7.4-14.9,11.8-21.9c2.2-3.5,4.6-6.9,7-10.3c2.5-3.4,5.1-6.6,7.7-9.8
		c2.7-3.2,5.6-6.2,8.7-9.1c3.1-2.8,6.4-5.5,10.3-7.5c7.7-3.8,16.2-5.2,24.5-4.4c-8.3,0.5-16.4,2.5-23.4,6.5c-1.7,1-3.3,2.2-4.9,3.4
		c-1.6,1.3-3.1,2.6-4.5,4.1c-2.9,2.8-5.7,5.8-8.3,9c-5.3,6.2-10.3,12.8-15.1,19.5C618.5,397.6,613.9,404.5,609.5,411.5z"/>
</g>
<g>
	<path class="st1" d="M673.5,300.5c4.3,1,8.6,1.3,12.8,0.8c4.2-0.5,8.2-1.9,11.8-4c3.6-2.1,6.9-4.7,9.7-7.9c2.8-3.2,5-6.9,6.8-10.9
		c-0.6,4.4-2.3,8.6-4.9,12.3c-2.6,3.7-6.1,6.8-10.1,9.1c-2,1.1-4.1,2-6.3,2.7c-2.2,0.6-4.5,1-6.8,1
		C681.9,303.7,677.3,302.7,673.5,300.5z"/>
</g>
<g>
	<path class="st1" d="M688.5,308.5c2,1.3,4.1,2.4,6.2,3.2c2.1,0.8,4.4,1.2,6.5,1c0.5-0.1,1-0.2,1.5-0.3c0.5-0.1,1-0.3,1.4-0.5
		c0.9-0.4,1.6-1.1,2.3-1.9c1.4-1.6,2.7-3.6,3.9-5.5l7.4-12c2.5-4,5-8,7.7-11.9c-1.6,4.5-3.6,8.8-5.7,13.1c-2.1,4.3-4.4,8.4-6.9,12.5
		c-1.3,2-2.6,4-4.4,5.9c-0.9,0.9-2,1.8-3.3,2.3c-1.3,0.5-2.6,0.8-3.9,0.8c-1.3,0-2.6-0.2-3.8-0.5c-1.2-0.4-2.3-0.9-3.4-1.5
		C692,311.8,690.1,310.3,688.5,308.5z"/>
</g>
<g>
	<path class="st1" d="M678.5,324.5c3.3-0.1,6.7,0.3,10,1c1.7,0.4,3.3,0.8,4.9,1.3c0.8,0.3,1.6,0.6,2.4,0.9c0.8,0.3,1.5,0.6,2.2,0.7
		c0.3,0.1,0.6,0.1,0.9,0c0.3,0,0.6-0.1,0.8-0.3c0.5-0.3,1-0.7,1.4-1.2c0.8-1.1,1.3-2.6,1.8-4.1c0.5-1.6,1-3.2,1.7-4.8
		c0.4-0.8,0.8-1.7,1.4-2.5c0.6-0.8,1.4-1.6,2.4-2.1c1-0.5,2.2-0.7,3.3-0.5c1.1,0.1,2,0.6,2.9,1c1.6,0.9,2.9,2,4.2,2.8
		c1.3,0.8,2.6,1.5,3.9,1.6c1.3,0.1,2.6-0.4,3.9-1.2c2.4-1.8,4.2-4.6,5.8-7.5c1.6-2.9,2.9-5.9,4.2-9c-0.7,3.3-1.6,6.5-2.9,9.7
		c-1.3,3.1-2.9,6.3-5.7,8.7c-0.7,0.6-1.5,1.1-2.4,1.5c-0.9,0.4-1.9,0.5-2.9,0.5c-2,0-3.8-0.9-5.3-1.8c-1.5-0.9-2.8-1.9-4.1-2.6
		c-0.6-0.3-1.3-0.6-1.8-0.6c-0.6,0-1.1,0-1.6,0.3c-1,0.5-1.8,1.6-2.4,3c-0.6,1.4-1.1,3-1.7,4.6c-0.6,1.6-1.2,3.3-2.4,4.9
		c-1.2,1.6-3.5,2.7-5.6,2.1c-1-0.3-1.7-0.7-2.5-1l-2.2-1c-1.5-0.7-3-1.2-4.6-1.8C685,325.8,681.8,325.1,678.5,324.5z"/>
</g>
<path class="st0" d="M507.5,403.5c-1.9,1.2-4.5,3.1-7,6c-1.9,2.2-3.1,4.3-4,6"/>
<path class="st0" d="M556.5,485.5c5,1.9,8.6,4.2,11,6c2.5,1.9,3.3,2.9,5,3c0.9,0.1,3.3,0,10-7c2.5-2.6,4.5-5.1,6-7"/>
<path class="st0" d="M555.5,466.5c3.1-3,5.4-5.4,7-7c3.1-3.2,4.6-4.8,7-5c1.5-0.1,2,0.5,4,1c2,0.5,5,0.9,9,0"/>
<path class="st0" d="M578.5,446.5c4-0.7,6.1,0.4,7,1c1.4,0.9,3.2,2.9,5,4.9c0.2,0.2,0.4,0.4,0.4,0.4c0.3,0.4,0.6,0.7,0.6,0.7
	c2.8,3.2,9,7,9,7c4.1,2.5,7.4,4.5,10,6"/>
<path class="st0" d="M595.5,450.5c0.4,1.4,1.3,3.2,3,4c1.9,0.9,3.4-0.3,6,0c1.5,0.1,3.6,0.8,6,3"/>
<path class="st0" d="M564.5,480.5c1.1,1.5,3.3,4.1,6,4c1.4-0.1,2.4-0.8,4-2c1.9-1.3,4.5-3.1,8-5"/>
<g>
	<path class="st1" d="M1152.5,346.5c0.3,6.1,0.7,12.1,1.5,18c0.4,3,0.9,5.9,1.5,8.8c0.6,2.9,1.2,5.8,2,8.7c1.5,5.8,3.4,11.4,5.6,17
		c2.2,5.6,4.8,11,7.5,16.4c-3.8-4.8-7-10-9.6-15.5c-1.4-2.7-2.5-5.6-3.6-8.4c-1.1-2.9-1.9-5.8-2.7-8.8c-1.5-5.9-2.5-12-2.9-18.1
		C1151.3,358.6,1151.5,352.5,1152.5,346.5z"/>
</g>
<g>
	<path class="st1" d="M1127.5,382.5c2.6,9.3,5,18.8,7.2,28.2c1.1,4.7,2.2,9.4,3.3,14.2l2.9,14.3l2.7,14.3c0.8,4.8,1.7,9.5,2.5,14.3
		c1.6,9.6,3.2,19.1,4.4,28.8c-2.5-9.4-4.6-18.9-6.7-28.3c-1.1-4.7-2-9.5-3-14.2l-2.9-14.2l-2.7-14.3c-0.9-4.8-1.9-9.5-2.8-14.3
		C1130.6,401.7,1128.9,392.1,1127.5,382.5z"/>
</g>
<g>
	<path class="st1" d="M1100.5,350.5c4.7,14.6,8.6,29.6,11.4,44.7c1.5,7.6,2.6,15.2,3.6,22.8c0.9,7.6,1.6,15.3,2.2,23
		c1.1,15.3,2.1,30.6,3.8,45.9c0.8,7.6,1.7,15.2,2.7,22.8c1.1,7.6,2.2,15.2,3.2,22.8c-1.6-7.5-3.1-15-4.7-22.6
		c-1.4-7.6-2.6-15.2-3.6-22.8c-1.1-7.6-1.9-15.3-2.6-22.9c-0.7-7.7-1.2-15.3-1.9-23c-1.1-15.3-2.7-30.5-5.1-45.6
		C1107.2,380.5,1104.1,365.4,1100.5,350.5z"/>
</g>
<path class="st0" d="M937.5,545.5c-0.7,15.9-0.2,36.1,4,59c3.3,18,8.1,33.4,13,46"/>
<g>
	<path class="st1" d="M658.5,198.5c2,1,4,2.2,5.9,3.5c1.9,1.3,3.6,2.8,5.3,4.5c1.6,1.6,3.1,3.4,4.5,5.3c1.3,1.9,2.4,4,3.2,6.2
		c3.4,8.6,5,17.8,6.5,26.8c0.8,4.5,1.7,8.9,2.8,13.3c0.5,2.2,1.1,4.4,1.5,6.8c0.2,1.2,0.4,2.4,0.3,3.7c-0.1,1.3-0.4,2.7-1.2,3.9
		c-1.5,2.3-3.8,3.7-6,4.7c-1.1,0.5-2.2,0.8-3.3,1.2c-0.5,0.2-1,0.4-1.3,0.6c-0.3,0.2-0.6,0.4-0.6,0.5c0,0.1-0.1,0.3,0,0.6
		c0.1,0.3,0.3,0.6,0.6,1c0.6,0.7,1.4,1.3,2.3,1.8c1.8,1.1,3.8,1.8,5.8,2.1c4.1,0.6,8.4-0.7,12.2-2.8c1.9-1.1,3.7-2.3,5.5-3.7
		c1.6-1.3,2.8-2.9,3.6-4.9c0.8-1.9,1.1-4.1,1.4-6.3c0.3-2.2,0.4-4.6,1.1-7c0.6-2.3,1.9-4.7,3.9-6.4c2-1.7,4.4-2.5,6.6-3.1
		c2.2-0.6,4.4-1.2,6.5-2c2-0.8,4-1.8,5.7-3.1c3.4-2.7,6-6.5,7.6-10.7c1.6-4.2,2.4-8.7,2.4-13.2c0-4.5-0.9-9.1-2.6-13.3
		c4.1,8.2,4.5,18.1,1.6,27c-1.5,4.4-4.1,8.6-7.7,11.7c-1.8,1.6-4,2.7-6.1,3.6c-2.2,0.9-4.5,1.5-6.6,2.2c-2.1,0.7-4.1,1.5-5.6,2.8
		c-1.5,1.3-2.4,3.2-3,5.2c-1.1,4.1-0.6,8.9-2.4,13.6c-0.9,2.4-2.4,4.5-4.4,6.1c-1.8,1.5-3.8,2.8-5.9,4c-2.1,1.2-4.3,2.1-6.7,2.7
		c-2.4,0.6-4.9,0.9-7.4,0.5c-2.5-0.4-4.8-1.3-6.9-2.6c-1.1-0.7-2.1-1.4-3-2.5c-0.5-0.5-0.9-1.2-1.2-1.9c-0.3-0.8-0.3-1.8,0.1-2.8
		c0.5-1,1.2-1.4,1.8-1.8c0.6-0.3,1.2-0.6,1.8-0.8c1.1-0.4,2.2-0.8,3.2-1.2c2-0.8,3.7-2,4.7-3.5c0.5-0.8,0.7-1.6,0.8-2.6
		c0.1-1-0.1-2-0.2-3.1c-0.3-2.2-0.9-4.4-1.3-6.6c-1-4.5-1.9-9-2.5-13.6c-0.7-4.5-1.3-9-2.2-13.5c-0.9-4.5-1.9-8.9-3.4-13.1
		c-0.7-2.1-1.7-4.2-2.8-6.1c-1.2-1.9-2.6-3.7-4.1-5.4C666,203.7,662.4,200.8,658.5,198.5z"/>
</g>
<g>
	<path class="st1" d="M709.5,188.5c1.8,1.8,2.8,4.3,3.5,6.8c0.3,1.2,0.7,2.5,0.9,3.7c0.2,1.3,0.3,2.6,0.4,3.8
		c0.2,2.6,0.7,5.1,1.2,7.6c0.3,1.3,0.6,2.5,0.9,3.7c0.3,1.2,0.5,2.6,0.4,3.9c-0.1,1.3-0.4,2.6-1,3.8c-0.5,1.2-1.1,2.3-1.7,3.5
		l-3.7,6.8c-1.2,2.3-2.5,4.5-3.8,6.7l-1,1.7c-0.3,0.5-0.5,1.1-0.8,1.7c-0.5,1.2-0.9,2.4-1.3,3.6c-1.5,4.9-2.6,9.9-4.6,14.8
		c-0.5,1.2-1.1,2.4-1.7,3.6c-0.3,0.6-0.7,1.2-1.4,1.9c-0.2,0.2-0.4,0.3-0.8,0.5c-0.3,0.1-0.8,0.2-1.2,0c-0.8-0.3-1.1-0.9-1.3-1.2
		c-0.4-0.8-0.6-1.4-0.7-2.1c-0.2-0.7-0.3-1.3-0.4-2c-0.2-1.3-0.3-2.6-0.4-3.9l-1.7-15.3l-0.4-3.8c-0.1-1.3-0.3-2.5-0.6-3.7
		c-0.5-2.5-1.1-4.9-1.8-7.3c-0.8-2.4-1.6-4.7-2.7-7.1c-1-2.3-2.1-4.6-3.3-6.8c-1.2-2.2-2.7-4.2-4.1-6.5c-1.4-2.2-2.6-4.5-3.8-6.8
		c-1.2-2.3-2.3-4.6-3.3-7c-1-2.4-2-4.9-2.5-7.5c-0.3-1.3-0.4-2.7-0.4-4c0-1.3,0.1-2.7,0.3-4c0.4-2.6,1.1-5.2,2.2-7.6
		c1.1-2.4,2.4-4.7,3.9-6.8c0.8-1.1,1.6-2.1,2.5-3.1c0.9-0.9,1.9-1.8,3.2-2.4c1.2-0.6,2.8-0.8,4.1-0.2c1.3,0.7,2.1,1.8,2.9,2.8
		c1.5,2.1,3,4.2,4.2,6.5c2.2,4.6,4.5,9.2,7.2,13.6c0.7,1.1,1.4,2.1,2.4,3c1,0.8,2.1,1.5,3.3,2c1.2,0.5,2.5,0.7,3.7,1.1
		C707.5,186.8,708.6,187.6,709.5,188.5z M709.5,188.5c-0.9-0.9-2-1.7-3.2-2.1c-1.2-0.4-2.5-0.6-3.7-1.1c-1.2-0.4-2.3-1.1-3.3-2
		c-1-0.8-1.7-1.9-2.5-3c-1.4-2.2-2.6-4.4-3.9-6.7c-1.3-2.2-2.4-4.6-3.6-6.8c-1.2-2.2-2.8-4.3-4.4-6.3c-0.8-1-1.6-2-2.7-2.5
		c-1-0.5-2.3-0.3-3.3,0.3c-1.1,0.6-2,1.4-2.8,2.3c-0.8,0.9-1.6,1.9-2.3,3c-1.4,2.1-2.5,4.4-3.5,6.7c-0.9,2.3-1.6,4.8-1.8,7.2
		c-0.2,2.5-0.2,5,0.4,7.3c0.6,2.4,1.6,4.7,2.7,7c1.1,2.3,2.3,4.5,3.5,6.8c1.2,2.2,2.5,4.4,3.9,6.5c1.4,2.1,3,4.2,4.3,6.5
		c1.3,2.3,2.4,4.6,3.5,7c1.1,2.4,2,4.8,2.8,7.3c0.8,2.5,1.4,5.1,1.9,7.7c0.2,1.3,0.4,2.6,0.6,3.9l0.4,3.8l1.4,15.4
		c0.1,1.3,0.2,2.6,0.3,3.8c0.1,0.6,0.1,1.2,0.3,1.8c0.1,0.6,0.3,1.2,0.4,1.5c0.1,0.2,0.2,0.2,0,0.1c-0.1,0-0.3,0-0.3,0
		c0,0,0,0,0.1,0c0.3-0.2,0.6-0.7,0.9-1.2c0.6-1.1,1.2-2.2,1.7-3.3c2.1-4.6,3.4-9.6,5.1-14.5c0.4-1.2,0.9-2.4,1.4-3.6
		c0.2-0.6,0.5-1.2,0.9-1.8l1-1.6c1.4-2.2,2.7-4.4,4-6.6l3.9-6.6c1.2-2.2,2.7-4.4,2.8-7c0.3-2.5-0.7-5-1.1-7.5
		c-0.5-2.5-0.8-5.1-1.1-7.6c-0.1-1.3-0.1-2.6-0.4-3.8c-0.2-1.3-0.6-2.5-0.9-3.7C712.3,192.8,711.3,190.4,709.5,188.5z"/>
</g>
</svg>
